<svg width="16" height="16" viewBox="0 0 16 16" fill="none" xmlns="http://www.w3.org/2000/svg">
<g clip-path="url(#clip0_3123_56865)">
<g clip-path="url(#clip1_3123_56865)">
<path d="M15.9386 7.3858C15.7255 3.4988 12.4131 0.218734 8.52614 0.0121159C2.17263 -0.323639 -1.9339 6.385 1.146 11.9185L0.0483398 15.9992L4.20007 14.9015C9.77231 17.8136 16.2808 13.6941 15.9386 7.3858ZM14.2404 10.1235C12.8393 14.1332 8.0096 15.7474 4.42606 13.4681L1.94664 14.1009L2.59878 11.686C0.0160558 7.91526 1.97893 2.63358 6.42122 1.54238C11.5221 0.283302 15.9709 5.1582 14.234 10.1235H14.2404Z" fill="#FAFAFA"/>
<path d="M12.0322 10.2537C11.9031 11.5903 10.3857 11.9196 9.28163 11.6161C7.58348 11.1512 6.22755 10.0729 5.16218 8.70409C4.44547 7.78077 3.74168 6.70248 4.09035 5.47568C4.20011 5.10119 4.65855 4.35219 5.06533 4.28763C5.19446 4.26826 5.66581 4.2618 5.77558 4.29408C5.82723 4.31345 5.90471 4.38448 5.937 4.42968C6.07905 4.60401 6.57622 5.83081 6.66016 6.10199C6.73118 6.31507 6.70536 6.36672 6.59559 6.55397C6.47937 6.76059 6.1307 7.07697 6.05968 7.25131C5.98219 7.44501 6.22755 7.75494 6.33732 7.91636C6.89261 8.72992 7.70616 9.41434 8.61658 9.80175C8.79091 9.87278 8.99753 10.0084 9.16541 9.85986L9.89503 8.95591C10.05 8.83323 10.2631 8.94299 10.418 9.0011C10.941 9.20772 11.4253 9.51119 11.9418 9.74364C12.0645 9.84049 12.0387 10.0988 12.0258 10.2537H12.0322Z" fill="#FAFAFA"/>
</g>
</g>
<defs>
<clipPath id="clip0_3123_56865">
<rect width="16" height="16" fill="white"/>
</clipPath>
<clipPath id="clip1_3123_56865">
<rect width="15.9031" height="16" fill="white" transform="translate(0.0483398)"/>
</clipPath>
</defs>
</svg>
